#!OML:ASF E:\acrobat2\Project_11_07_03\Capture day 1\Session 1\Acrobat.ASF
:FULLY-SPECIFIED
:DEGREES
480
root 12.3073 17.552 3.07844 302.763 62.8708 124.721
lowerback 1.88806 -3.31851 3.42767
upperback -7.19685 -3.67259 4.77061
thorax -8.54979 -1.76611 3.46354
lowerneck -9.33518 -9.83257 -3.36334
upperneck -21.6746 -12.9639 5.02775
head -4.53534 -5.91407 2.16262
rclavicle -2.97382e-013 -7.4743e-014
rhumerus 112.974 -3.6324 -102.04
rradius 17.1963
rwrist 72.5472
rhand -43.0869 -73.0605
rfingers 7.12502
rthumb -15.9421 102.424
lclavicle -2.97382e-013 -7.4743e-014
lhumerus 86.1644 40.502 38.9463
lradius 26.5662
lwrist -10.0819
lhand -51.7266 -31.8299
lfingers 7.12502
lthumb -24.2454 -3.3428
rfemur -8.31236 48.7989 -43.9855
rtibia -7.19351
rfoot -95.4753 -29.7042
rtoes 57.1583
lfemur 13.4651 -38.3545 12.3831
ltibia -5.75203
lfoot -244.979 178.358
ltoes 58.4766
481
root 12.3343 17.6009 3.35701 302.408 60.7988 124.621
lowerback 2.46141 -3.11641 4.07622
upperback -6.97401 -3.33318 5.00532
thorax -8.68582 -1.63681 3.34986
lowerneck -9.34847 -9.86228 -3.30327
upperneck -21.6222 -12.9911 5.07765
head -4.51575 -5.92804 2.16491
rclavicle -1.08934e-013 -5.725e-014
rhumerus 114.108 -1.12903 -105.99
rradius 16.2024
rwrist 76.9685
rhand -43.2659 -73.1968
rfingers 7.12502
rthumb -16.1144 102.547
lclavicle -1.08934e-013 -5.725e-014
lhumerus 87.2124 39.9099 39.7026
lradius 27.7437
lwrist -8.77787
lhand -50.3427 -29.8482
lfingers 7.12502
lthumb -22.918 -1.1903
rfemur -9.99341 50.1899 -46.9444
rtibia -7.24543
rfoot -97.9668 -27.1477
rtoes 57.5266
lfemur 13.4621 -36.7434 11.7426
ltibia -5.76948
lfoot -243.752 176.852
ltoes 58.3539
482
root 12.3579 17.6589 3.63222 302.111 59.2135 124.661
lowerback 3.01096 -2.92237 4.30537
upperback -6.74156 -3.04138 5.13244
thorax -8.77023 -1.50893 3.35184
lowerneck -9.1216 -9.8786 -3.31851
upperneck -21.9582 -13.0343 4.95438
head -4.66265 -5.91104 2.1538
rclavicle -9.93923e-014 4.13472e-014
rhumerus 115.264 2.62274 -111.361
rradius 14.9893
rwrist 83.3311
rhand -43.227 -73.4916
rfingers 7.12502
rthumb -16.0769 102.845
lclavicle -9.93923e-014 4.13472e-014
lhumerus 86.3191 40.0194 38.5059
lradius 29.582
lwrist -5.65095
lhand -48.8552 -30.3239
lfingers 7.12502
lthumb -21.49 -1.496
rfemur -11.4621 47.6795 -50.0031
rtibia -7.20291
rfoot -96.887 -30.8247
rtoes 55.6859
lfemur 14.4754 -39.1161 9.30462
ltibia -5.43009
lfoot -245.191 179.274
ltoes 58.9545
483
root 12.3853 17.7184 3.91409 301.795 57.5698 124.726
lowerback 3.63611 -2.76979 4.52686
upperback -6.51002 -2.79133 5.28726
thorax -8.89757 -1.39844 3.39408
lowerneck -9.03262 -9.85241 -3.1592
upperneck -22.2021 -13.0424 4.61246
head -4.78929 -5.87301 2.04021
rclavicle 1.38354e-013 6.36111e-014
rhumerus 115.946 6.07712 -116.009
rradius 14.0227
rwrist 88.7943
rhand -43.131 -74.0325
rfingers 7.12502
rthumb -15.9845 103.393
lclavicle 1.38354e-013 6.36111e-014
lhumerus 85.9933 39.9815 37.942
lradius 30.8092
lwrist -3.57238
lhand -48.2403 -32.408
lfingers 7.12502
lthumb -20.8993 -3.51376
rfemur -12.8433 48.0124 -53.3065
rtibia -7.51329
rfoot -98.9577 -30.6322
rtoes 55.4423
lfemur 14.1898 -37.335 8.44481
ltibia -5.46715
lfoot -244.048 180.445
ltoes 58.9759
484
root 12.4211 17.7714 4.20182 300.898 55.2176 124.139
lowerback 4.47294 -2.6928 5.56307
upperback -6.33835 -2.52334 5.60743
thorax -9.25872 -1.32378 3.1759
lowerneck -9.00553 -9.76308 -2.85009
upperneck -22.1901 -12.9599 4.26056
head -4.83823 -5.81897 1.88891
rclavicle 9.78021e-014 -2.70347e-014
rhumerus 115.847 10.3288 -122.222
rradius 13.1222
rwrist 95.9024
rhand -43.1757 -74.4522
rfingers 7.12502
rthumb -16.0275 103.809
lclavicle 9.78021e-014 -2.70347e-014
lhumerus 85.2252 39.6321 36.8162
lradius 31.9579
lwrist -2.24441
lhand -48.8975 -34.6568
lfingers 7.12502
lthumb -21.5306 -5.83348
rfemur -14.5864 49.0795 -55.9378
rtibia -7.46201
rfoot -101.523 -29.1838
rtoes 55.4206
lfemur 13.9585 -35.9659 8.51912
ltibia -5.43581
lfoot -243.205 181.361
ltoes 58.797
485
root 12.4549 17.8176 4.49065 300.066 53.0265 123.695
lowerback 5.39825 -2.5871 6.4333
upperback -6.17647 -2.20949 5.9021
thorax -9.67211 -1.22109 3.01998
lowerneck -9.02431 -9.64136 -3.05858
upperneck -22.0206 -12.208 3.94895
head -4.81738 -6.50263 1.90925
rclavicle 7.71285e-014 -2.22639e-014
rhumerus 114.471 16.4661 -131.776
rradius 12.1266
rwrist 106.872
rhand -43.1431 -74.9574
rfingers 7.12502
rthumb -15.9961 104.317
lclavicle 7.71285e-014 -2.22639e-014
lhumerus 84.1001 39.1875 35.5478
lradius 33.0685
lwrist -2.00149
lhand -49.7612 -37.384
lfingers 7.12502
lthumb -22.3599 -8.65796
rfemur -15.9278 47.2023 -58.0968
rtibia -7.50362
rfoot -101.266 -31.1921
rtoes 54.205
lfemur 13.8475 -35.1406 8.13213
ltibia -5.27581
lfoot -242.695 181.935
ltoes 58.737
486
root 12.4858 17.8637 4.79412 299.889 51.5351 123.949
lowerback 5.93322 -2.38751 6.2654
upperback -5.89459 -1.93294 6.10081
thorax -9.66321 -1.07225 3.30194
lowerneck -9.34821 -9.69897 -3.59445
upperneck -21.879 -12.2149 4.34664
head -4.66264 -6.49168 2.08492
rclavicle 1.35174e-014 -4.6118e-014
rhumerus 110.147 24.5538 -145.898
rradius 11.4029
rwrist 122.294
rhand -43.0917 -75.9385
rfingers 7.12502
rthumb -15.9467 105.302
lclavicle 1.35174e-014 -4.6118e-014
lhumerus 81.5795 39.4077 32.9292
lradius 34.6787
lwrist -1.51218
lhand -50.4046 -40.4734
lfingers 7.12502
lthumb -22.9773 -11.8228
rfemur -17.311 46.7191 -61.3843
rtibia -7.64856
rfoot -103.078 -31.6642
rtoes 53.9672
lfemur 13.6313 -34.3048 6.82432
ltibia -5.05708
lfoot -241.979 181.946
ltoes 58.9179
487
root 12.5153 17.9056 5.09963 299.518 49.9797 124.204
lowerback 6.52945 -2.25557 6.25259
upperback -5.54051 -1.73597 6.18
thorax -9.62319 -0.975374 3.37699
lowerneck -9.22524 -9.55682 -3.4317
upperneck -22.2506 -12.1595 3.8913
head -4.84421 -6.48772 1.95083
rclavicle -1.98785e-014 9.54166e-014
rhumerus 105.115 29.6538 -157.805
rradius 11.2889
rwrist 133.837
rhand -43.3488 -76.5591
rfingers 7.12502
rthumb -16.1942 105.903
lclavicle -1.98785e-014 9.54166e-014
lhumerus 80.637 38.5784 31.7332
lradius 35.6041
lwrist -3.02208
lhand -51.0953 -43.1158
lfingers 7.12502
lthumb -23.64 -14.5492
rfemur -17.8733 37.5655 -62.3296
rtibia -7.09994
rfoot -95.0627 -36.9611
rtoes 52.7165
lfemur 13.5172 -33.1552 5.58346
ltibia -4.82633
lfoot -240.862 182.427
ltoes 58.7846
488
root 12.5388 17.9453 5.42001 299.066 48.2572 124.173
lowerback 6.89764 -2.16896 6.49859
upperback -5.31103 -1.58269 6.23143
thorax -9.59755 -0.91824 3.27932
lowerneck -8.99981 -9.44814 -3.00636
upperneck -22.4694 -12.0594 3.81279
head -4.98111 -6.46669 1.88483
rclavicle 1.91628e-013 -1.59028e-014
rhumerus 96.6681 34.1303 -173.614
rradius 11.6376
rwrist 147.775
rhand -43.5019 -77.6359
rfingers 7.12502
rthumb -16.3416 106.967
lclavicle 1.91628e-013 -1.59028e-014
lhumerus 78.6581 38.628 29.9154
lradius 36.7213
lwrist -3.04836
lhand -51.0812 -44.9043
lfingers 7.12502
lthumb -23.6265 -16.336
rfemur -18.8677 39.2497 -65.3556
rtibia -7.90268
rfoot -99.8947 -35.5514
rtoes 53.127
lfemur 13.0957 -31.8084 4.86323
ltibia -4.56932
lfoot -239.888 183.005
ltoes 58.5586
489
root 12.5657 17.978 5.72438 298.497 46.2786 124.643
lowerback 7.88429 -2.02824 6.87276
upperback -4.91426 -1.28763 6.32976
thorax -9.75722 -0.800077 3.16003
lowerneck -8.78691 -9.2749 -2.97289
upperneck -22.7884 -11.8469 3.90324
head -5.11594 -6.38158 1.93231
rclavicle 8.0309e-014 -2.22639e-014
rhumerus 91.721 35.7561 -182.3
rradius 11.8822
rwrist 154.606
rhand -43.2007 -78.6037
rfingers 7.12502
rthumb -16.0516 107.959
lclavicle 8.0309e-014 -2.22639e-014
lhumerus 79.0609 37.5687 30.3399
lradius 36.5921
lwrist -4.34807
lhand -50.9671 -45.3942
lfingers 7.12502
lthumb -23.517 -16.8118
rfemur -20.2744 38.403 -67.6403
rtibia -8.0237
rfoot -101.179 -35.1646
rtoes 53.2162
lfemur 13.4574 -30.6456 3.60455
ltibia -4.32083
lfoot -239.385 187.22
ltoes 58.6075
490
root 12.5917 17.9987 6.04974 297.684 44.5449 124.725
lowerback 8.47883 -2.04411 6.98162
upperback -4.43972 -1.26997 6.4336
thorax -9.58498 -0.790316 3.21032
lowerneck -8.7579 -9.0973 -3.02638
upperneck -23.0313 -11.6214 4.03246
head -5.19167 -6.28963 1.9918
rclavicle 9.54166e-014 -1.90833e-014
rhumerus 84.0142 36.9033 -194.641
rradius 12.5445
rwrist 163.956
rhand -43.0464 -79.868
rfingers 7.12502
rthumb -15.903 109.235
lclavicle 9.54166e-014 -1.90833e-014
lhumerus 76.8432 37.2103 28.1424
lradius 37.8657
lwrist -2.87987
lhand -50.4945 -45.2355
lfingers 7.12502
lthumb -23.0637 -16.5957
rfemur -21.0608 36.1637 -69.3133
rtibia -8.03526
rfoot -100.919 -35.5114
rtoes 53.1384
lfemur 13.6355 -30.242 2.33096
ltibia -3.94052
lfoot -239.306 188.143
ltoes 58.4824
491
root 12.6149 18.0161 6.38041 297.004 43.189 124.998
lowerback 9.03978 -2.00987 6.68008
upperback -4.02655 -1.24802 6.39749
thorax -9.44823 -0.760495 3.33737
lowerneck -9.2767 -9.07536 -2.81949
upperneck -22.5425 -11.6416 3.88625
head -4.97877 -6.30408 1.8687
rclavicle 1.81292e-013 -8.26944e-014
rhumerus 75.7425 36.6759 -207.537
rradius 13.566
rwrist 173.823
rhand -42.8084 -81.3002
rfingers 7.12502
rthumb -15.6738 110.685
lclavicle 1.81292e-013 -8.26944e-014
lhumerus 74.6505 36.7379 26.0145
lradius 39.1593
lwrist -0.768073
lhand -49.6121 -45.1443
lfingers 7.12502
lthumb -22.2168 -16.4012
rfemur -21.7009 33.7639 -71.2775
rtibia -8.09863
rfoot -100.07 -36.2627
rtoes 53.4682
lfemur 13.6687 -29.729 0.509107
ltibia -3.38442
lfoot -239.197 187.58
ltoes 58.1665
492
root 12.6348 18.0314 6.71266 296.265 41.8281 125.271
lowerback 9.79175 -1.93614 6.31442
upperback -3.77092 -1.1503 6.36649
thorax -9.59824 -0.694631 3.51284
lowerneck -9.47285 -9.15153 -2.62821
upperneck -22.1235 -11.7677 3.85982
head -4.826 -6.367 1.8034
rclavicle 1.74931e-014 4.77083e-014
rhumerus 70.3312 35.6433 -216.563
rradius 14.4134
rwrist 180.995
rhand -42.2499 -82.257
rfingers 7.12502
rthumb -15.1359 111.684
lclavicle 1.74931e-014 4.77083e-014
lhumerus 74.8956 35.2375 26.7095
lradius 39.0079
lwrist -0.472235
lhand -49.365 -45.0023
lfingers 7.12502
lthumb -21.9795 -16.2311
rfemur -22.3353 31.8518 -73.2417
rtibia -8.26034
rfoot -100.372 -37.0323
rtoes 52.9386
lfemur 13.4485 -28.2513 -1.07526
ltibia -3.13087
lfoot -238.517 188.131
ltoes 57.9401
493
root 12.6538 18.0341 7.05174 295.19 39.9077 125.227
lowerback 10.5671 -1.90176 6.55392
upperback -3.49061 -1.01721 6.43114
thorax -9.75239 -0.645417 3.44818
lowerneck -9.51331 -9.0739 -2.15242
upperneck -21.7987 -11.7251 3.68771
head -4.75737 -6.35698 1.66325
rclavicle 1.90833e-014 -9.85972e-014
rhumerus 64.704 33.7542 -225.991
rradius 15.6145
rwrist 188.671
rhand -41.9218 -83.387
rfingers 7.12502
rthumb -14.8198 112.837
lclavicle 1.90833e-014 -9.85972e-014
lhumerus 73.6283 34.2803 25.6907
lradius 39.4495
lwrist 1.88813
lhand -49.6536 -43.9898
lfingers 7.12502
lthumb -22.2566 -15.2514
rfemur -23.1304 30.953 -74.7329
rtibia -8.51062
rfoot -101.782 -37.6075
rtoes 52.0658
lfemur 13.2677 -26.5188 -1.80303
ltibia -2.88652
lfoot -237.354 189.342
ltoes 57.9127
494
root 12.6716 18.0267 7.39327 294.106 37.8874 125.253
lowerback 11.1754 -1.92066 6.88406
upperback -3.08206 -0.970079 6.47289
thorax -9.6654 -0.640368 3.30671
lowerneck -9.8153 -8.94658 -1.53824
upperneck -21.4888 -11.6389 3.44601
head -4.66769 -6.34066 1.46972
rclavicle -6.04305e-014 -4.13472e-014
rhumerus 63.235 33.0798 -229.773
rradius 15.9532
rwrist 191.212
rhand -41.8116 -83.8151
rfingers 7.12502
rthumb -14.7137 113.273
lclavicle -6.04305e-014 -4.13472e-014
lhumerus 77.2449 31.5261 30.4325
lradius 37.4493
lwrist -0.857198
lhand -49.6834 -43.301
lfingers 7.12502
lthumb -22.2852 -14.566
rfemur -24.0599 30.0474 -76.0408
rtibia -8.65447
rfoot -103.653 -37.9201
rtoes 51.3753
lfemur 13.253 -25.511 -2.69145
ltibia -2.61205
lfoot -236.666 189.586
ltoes 57.9034
